<mxfile compressed="false" host="drawio-plugin" modified="2024-03-20T05:15:14.833Z" agent="5.0 (X11; Linux x86_64) AppleWebKit/537.36 (KHTML, like Gecko) Chrome/111.0.0.0 Safari/537.36" etag="jxFcSnwqI0i3YYK-rQgn" version="20.5.3" type="embed"><diagram name="Page-1" id="lydMjSXvnL9oaIFbFxpS"><mxGraphModel dx="1283" dy="791" grid="1" gridSize="10" guides="1" tooltips="1" connect="1" arrows="1" fold="1" page="1" pageScale="1" pageWidth="200" pageHeight="180" math="0" shadow="0"><root><mxCell id="0"/><mxCell id="1" parent="0"/><mxCell id="J9wHwNwn0n1z0YtR8CXD-2" value="Aircraft" style="html=1;dashed=0;whiteSpace=wrap;" parent="1" vertex="1"><mxGeometry x="100" y="60" width="100" height="50" as="geometry"/></mxCell><mxCell id="J9wHwNwn0n1z0YtR8CXD-3" value="Account" style="html=1;dashed=0;whiteSpace=wrap;" parent="1" vertex="1"><mxGeometry x="-720" y="60" width="100" height="50" as="geometry"/></mxCell><mxCell id="J9wHwNwn0n1z0YtR8CXD-4" value="Crew" style="html=1;dashed=0;whiteSpace=wrap;" parent="1" vertex="1"><mxGeometry x="-220" y="-230" width="100" height="50" as="geometry"/></mxCell><mxCell id="J9wHwNwn0n1z0YtR8CXD-5" value="Paycheck" style="html=1;dashed=0;whiteSpace=wrap;" parent="1" vertex="1"><mxGeometry x="-360" y="-320" width="100" height="50" as="geometry"/></mxCell><mxCell id="J9wHwNwn0n1z0YtR8CXD-6" value="Maintenance Log" style="html=1;dashed=0;whiteSpace=wrap;" parent="1" vertex="1"><mxGeometry x="100" y="160" width="100" height="50" as="geometry"/></mxCell><mxCell id="J9wHwNwn0n1z0YtR8CXD-7" value="Flight" style="html=1;dashed=0;whiteSpace=wrap;" parent="1" vertex="1"><mxGeometry x="-220" y="60" width="100" height="50" as="geometry"/></mxCell><mxCell id="J9wHwNwn0n1z0YtR8CXD-12" value="Airport" style="html=1;dashed=0;whiteSpace=wrap;" parent="1" vertex="1"><mxGeometry x="-220" y="160" width="100" height="50" as="geometry"/></mxCell><mxCell id="J9wHwNwn0n1z0YtR8CXD-13" value="" style="edgeStyle=orthogonalEdgeStyle;fontSize=12;html=1;endArrow=ERoneToMany;startArrow=ERmandOne;rounded=0;entryX=0.5;entryY=1;entryDx=0;entryDy=0;exitX=0.5;exitY=0;exitDx=0;exitDy=0;" parent="1" source="J9wHwNwn0n1z0YtR8CXD-12" target="J9wHwNwn0n1z0YtR8CXD-7" edge="1"><mxGeometry width="100" height="100" relative="1" as="geometry"><mxPoint x="-100" y="130" as="sourcePoint"/><mxPoint y="30" as="targetPoint"/></mxGeometry></mxCell><mxCell id="J9wHwNwn0n1z0YtR8CXD-14" value="" style="edgeStyle=orthogonalEdgeStyle;fontSize=12;html=1;endArrow=ERoneToMany;startArrow=ERmandOne;rounded=0;entryX=1;entryY=0.5;entryDx=0;entryDy=0;exitX=0;exitY=0.5;exitDx=0;exitDy=0;" parent="1" source="J9wHwNwn0n1z0YtR8CXD-2" target="J9wHwNwn0n1z0YtR8CXD-7" edge="1"><mxGeometry width="100" height="100" relative="1" as="geometry"><mxPoint x="-100" y="130" as="sourcePoint"/><mxPoint y="30" as="targetPoint"/></mxGeometry></mxCell><mxCell id="J9wHwNwn0n1z0YtR8CXD-15" value="Flight Ticket" style="html=1;dashed=0;whiteSpace=wrap;" parent="1" vertex="1"><mxGeometry x="-560" y="60" width="100" height="50" as="geometry"/></mxCell><mxCell id="J9wHwNwn0n1z0YtR8CXD-17" value="" style="edgeStyle=orthogonalEdgeStyle;fontSize=12;html=1;endArrow=ERoneToMany;startArrow=ERmandOne;rounded=0;entryX=0;entryY=0.5;entryDx=0;entryDy=0;exitX=1;exitY=0.5;exitDx=0;exitDy=0;" parent="1" source="J9wHwNwn0n1z0YtR8CXD-3" target="J9wHwNwn0n1z0YtR8CXD-15" edge="1"><mxGeometry width="100" height="100" relative="1" as="geometry"><mxPoint x="-210" y="105" as="sourcePoint"/><mxPoint x="-280" y="105" as="targetPoint"/></mxGeometry></mxCell><mxCell id="J9wHwNwn0n1z0YtR8CXD-18" value="Crew Shift" style="html=1;dashed=0;whiteSpace=wrap;" parent="1" vertex="1"><mxGeometry x="-220" y="-40" width="100" height="50" as="geometry"/></mxCell><mxCell id="J9wHwNwn0n1z0YtR8CXD-19" value="" style="edgeStyle=orthogonalEdgeStyle;fontSize=12;html=1;endArrow=ERoneToMany;startArrow=ERmandOne;rounded=0;entryX=0.5;entryY=1;entryDx=0;entryDy=0;exitX=0.5;exitY=0;exitDx=0;exitDy=0;" parent="1" source="J9wHwNwn0n1z0YtR8CXD-7" target="J9wHwNwn0n1z0YtR8CXD-18" edge="1"><mxGeometry width="100" height="100" relative="1" as="geometry"><mxPoint x="-210" y="95" as="sourcePoint"/><mxPoint x="-270" y="95" as="targetPoint"/></mxGeometry></mxCell><mxCell id="J9wHwNwn0n1z0YtR8CXD-20" value="" style="edgeStyle=orthogonalEdgeStyle;fontSize=12;html=1;endArrow=ERoneToMany;startArrow=ERmandOne;rounded=0;entryX=0.5;entryY=0;entryDx=0;entryDy=0;exitX=0.5;exitY=1;exitDx=0;exitDy=0;" parent="1" source="J9wHwNwn0n1z0YtR8CXD-4" target="J9wHwNwn0n1z0YtR8CXD-18" edge="1"><mxGeometry width="100" height="100" relative="1" as="geometry"><mxPoint x="-200" y="95" as="sourcePoint"/><mxPoint x="-260" y="95" as="targetPoint"/></mxGeometry></mxCell><mxCell id="J9wHwNwn0n1z0YtR8CXD-22" value="Payment" style="html=1;dashed=0;whiteSpace=wrap;" parent="1" vertex="1"><mxGeometry x="-560" y="-40" width="100" height="50" as="geometry"/></mxCell><mxCell id="J9wHwNwn0n1z0YtR8CXD-23" value="" style="edgeStyle=orthogonalEdgeStyle;fontSize=12;html=1;endArrow=ERoneToMany;startArrow=ERmandOne;rounded=0;entryX=0;entryY=0.5;entryDx=0;entryDy=0;exitX=0.75;exitY=0;exitDx=0;exitDy=0;" parent="1" source="J9wHwNwn0n1z0YtR8CXD-3" target="J9wHwNwn0n1z0YtR8CXD-22" edge="1"><mxGeometry width="100" height="100" relative="1" as="geometry"><mxPoint x="-360" y="125" as="sourcePoint"/><mxPoint x="-420" y="125" as="targetPoint"/></mxGeometry></mxCell><mxCell id="J9wHwNwn0n1z0YtR8CXD-24" value="" style="edgeStyle=orthogonalEdgeStyle;fontSize=12;html=1;endArrow=ERoneToMany;startArrow=ERmandOne;rounded=0;exitX=0.5;exitY=1;exitDx=0;exitDy=0;entryX=0.5;entryY=0;entryDx=0;entryDy=0;" parent="1" source="J9wHwNwn0n1z0YtR8CXD-22" target="J9wHwNwn0n1z0YtR8CXD-15" edge="1"><mxGeometry width="100" height="100" relative="1" as="geometry"><mxPoint x="-350" y="135" as="sourcePoint"/><mxPoint x="-370" y="40" as="targetPoint"/></mxGeometry></mxCell><mxCell id="J9wHwNwn0n1z0YtR8CXD-25" value="Refund" style="html=1;dashed=0;whiteSpace=wrap;" parent="1" vertex="1"><mxGeometry x="-560" y="-130" width="100" height="50" as="geometry"/></mxCell><mxCell id="J9wHwNwn0n1z0YtR8CXD-26" value="" style="edgeStyle=orthogonalEdgeStyle;fontSize=12;html=1;endArrow=ERoneToMany;startArrow=ERmandOne;rounded=0;entryX=0;entryY=0.5;entryDx=0;entryDy=0;exitX=0.25;exitY=0;exitDx=0;exitDy=0;" parent="1" source="J9wHwNwn0n1z0YtR8CXD-3" target="J9wHwNwn0n1z0YtR8CXD-25" edge="1"><mxGeometry width="100" height="100" relative="1" as="geometry"><mxPoint x="-340" y="145" as="sourcePoint"/><mxPoint x="-400" y="145" as="targetPoint"/></mxGeometry></mxCell><mxCell id="J9wHwNwn0n1z0YtR8CXD-27" value="" style="edgeStyle=orthogonalEdgeStyle;fontSize=12;html=1;endArrow=ERoneToMany;startArrow=ERmandOne;rounded=0;entryX=0.5;entryY=1;entryDx=0;entryDy=0;exitX=0.5;exitY=0;exitDx=0;exitDy=0;" parent="1" source="J9wHwNwn0n1z0YtR8CXD-22" target="J9wHwNwn0n1z0YtR8CXD-25" edge="1"><mxGeometry width="100" height="100" relative="1" as="geometry"><mxPoint x="-330" y="155" as="sourcePoint"/><mxPoint x="-390" y="155" as="targetPoint"/></mxGeometry></mxCell><mxCell id="J9wHwNwn0n1z0YtR8CXD-28" value="Flight Plan" style="html=1;dashed=0;whiteSpace=wrap;" parent="1" vertex="1"><mxGeometry x="-360" y="60" width="100" height="50" as="geometry"/></mxCell><mxCell id="J9wHwNwn0n1z0YtR8CXD-30" value="" style="edgeStyle=orthogonalEdgeStyle;fontSize=12;html=1;endArrow=ERoneToMany;startArrow=ERmandOne;rounded=0;entryX=1;entryY=0.5;entryDx=0;entryDy=0;exitX=0;exitY=0.5;exitDx=0;exitDy=0;" parent="1" source="J9wHwNwn0n1z0YtR8CXD-7" target="J9wHwNwn0n1z0YtR8CXD-28" edge="1"><mxGeometry width="100" height="100" relative="1" as="geometry"><mxPoint x="-160" y="70" as="sourcePoint"/><mxPoint x="-160" y="20" as="targetPoint"/></mxGeometry></mxCell><mxCell id="J9wHwNwn0n1z0YtR8CXD-31" value="" style="edgeStyle=orthogonalEdgeStyle;fontSize=12;html=1;endArrow=ERoneToMany;startArrow=ERmandOne;rounded=0;entryX=0;entryY=0.5;entryDx=0;entryDy=0;exitX=1;exitY=0.5;exitDx=0;exitDy=0;" parent="1" source="J9wHwNwn0n1z0YtR8CXD-15" target="J9wHwNwn0n1z0YtR8CXD-28" edge="1"><mxGeometry width="100" height="100" relative="1" as="geometry"><mxPoint x="-150" y="80" as="sourcePoint"/><mxPoint x="-150" y="30" as="targetPoint"/></mxGeometry></mxCell><mxCell id="5" value="" style="edgeStyle=orthogonalEdgeStyle;fontSize=12;html=1;endArrow=ERzeroToMany;startArrow=ERmandOne;rounded=0;entryX=0.5;entryY=1;entryDx=0;entryDy=0;exitX=0.25;exitY=0;exitDx=0;exitDy=0;" parent="1" source="J9wHwNwn0n1z0YtR8CXD-4" target="J9wHwNwn0n1z0YtR8CXD-5" edge="1"><mxGeometry width="100" height="100" relative="1" as="geometry"><mxPoint x="-80" y="-70" as="sourcePoint"/><mxPoint x="20" y="-170" as="targetPoint"/></mxGeometry></mxCell><mxCell id="8" value="Aircraft Type" style="html=1;dashed=0;whiteSpace=wrap;" parent="1" vertex="1"><mxGeometry x="170" y="-40" width="100" height="50" as="geometry"/></mxCell><mxCell id="9" value="Membership" style="html=1;dashed=0;whiteSpace=wrap;" parent="1" vertex="1"><mxGeometry x="-720" y="160" width="100" height="50" as="geometry"/></mxCell><mxCell id="12" value="" style="edgeStyle=orthogonalEdgeStyle;fontSize=12;html=1;endArrow=ERoneToMany;startArrow=ERmandOne;rounded=0;entryX=0.5;entryY=1;entryDx=0;entryDy=0;exitX=0.25;exitY=0;exitDx=0;exitDy=0;" parent="1" source="J9wHwNwn0n1z0YtR8CXD-7" target="11" edge="1"><mxGeometry width="100" height="100" relative="1" as="geometry"><mxPoint x="-135" y="70" as="sourcePoint"/><mxPoint x="-60" y="10" as="targetPoint"/></mxGeometry></mxCell><mxCell id="13" value="Membership Type" style="html=1;dashed=0;whiteSpace=wrap;" parent="1" vertex="1"><mxGeometry x="-720" y="260" width="100" height="50" as="geometry"/></mxCell><mxCell id="15" value="Rest Log" style="html=1;dashed=0;whiteSpace=wrap;" parent="1" vertex="1"><mxGeometry x="-220" y="-320" width="100" height="50" as="geometry"/></mxCell><mxCell id="16" value="Flight Report" style="html=1;dashed=0;whiteSpace=wrap;" parent="1" vertex="1"><mxGeometry x="-80" y="-40" width="100" height="50" as="geometry"/></mxCell><mxCell id="18" value="" style="edgeStyle=orthogonalEdgeStyle;fontSize=12;html=1;endArrow=ERoneToMany;startArrow=ERmandOne;rounded=0;entryX=0.5;entryY=1;entryDx=0;entryDy=0;exitX=0.75;exitY=0;exitDx=0;exitDy=0;" parent="1" source="J9wHwNwn0n1z0YtR8CXD-7" target="16" edge="1"><mxGeometry width="100" height="100" relative="1" as="geometry"><mxPoint x="-150" y="80" as="sourcePoint"/><mxPoint x="-120" y="20" as="targetPoint"/></mxGeometry></mxCell><mxCell id="19" value="Extra Service" style="html=1;dashed=0;whiteSpace=wrap;" parent="1" vertex="1"><mxGeometry x="-560" y="160" width="100" height="50" as="geometry"/></mxCell><mxCell id="21" value="Flight Experience" style="html=1;dashed=0;whiteSpace=wrap;" parent="1" vertex="1"><mxGeometry x="-80" y="-320" width="100" height="50" as="geometry"/></mxCell><mxCell id="22" value="Aircraft Model" style="html=1;dashed=0;whiteSpace=wrap;" parent="1" vertex="1"><mxGeometry x="60" y="-40" width="100" height="50" as="geometry"/></mxCell><mxCell id="25" value="" style="edgeStyle=orthogonalEdgeStyle;fontSize=12;html=1;endArrow=ERzeroToMany;startArrow=ERmandOne;rounded=0;entryX=0.5;entryY=1;entryDx=0;entryDy=0;exitX=0.5;exitY=0;exitDx=0;exitDy=0;" parent="1" source="J9wHwNwn0n1z0YtR8CXD-4" target="15" edge="1"><mxGeometry width="100" height="100" relative="1" as="geometry"><mxPoint x="-250" y="-205" as="sourcePoint"/><mxPoint x="-280" y="-205" as="targetPoint"/></mxGeometry></mxCell><mxCell id="26" value="" style="edgeStyle=orthogonalEdgeStyle;fontSize=12;html=1;endArrow=ERzeroToMany;startArrow=ERmandOne;rounded=0;entryX=0.5;entryY=1;entryDx=0;entryDy=0;exitX=0.75;exitY=0;exitDx=0;exitDy=0;" parent="1" source="J9wHwNwn0n1z0YtR8CXD-4" target="21" edge="1"><mxGeometry width="100" height="100" relative="1" as="geometry"><mxPoint x="-240" y="-185" as="sourcePoint"/><mxPoint x="-270" y="-185" as="targetPoint"/></mxGeometry></mxCell><mxCell id="30" value="" style="edgeStyle=orthogonalEdgeStyle;fontSize=12;html=1;endArrow=ERzeroToMany;startArrow=ERmandOne;rounded=0;entryX=1;entryY=0.5;entryDx=0;entryDy=0;exitX=0.5;exitY=0;exitDx=0;exitDy=0;" parent="1" source="22" target="21" edge="1"><mxGeometry width="100" height="100" relative="1" as="geometry"><mxPoint x="-110" y="-115" as="sourcePoint"/><mxPoint x="10" y="-115" as="targetPoint"/></mxGeometry></mxCell><mxCell id="31" value="" style="edgeStyle=orthogonalEdgeStyle;fontSize=12;html=1;endArrow=ERzeroToMany;startArrow=ERmandOne;rounded=0;entryX=0.75;entryY=0;entryDx=0;entryDy=0;exitX=0.5;exitY=1;exitDx=0;exitDy=0;" parent="1" source="8" target="J9wHwNwn0n1z0YtR8CXD-2" edge="1"><mxGeometry width="100" height="100" relative="1" as="geometry"><mxPoint x="-70" y="-105" as="sourcePoint"/><mxPoint x="50" y="-105" as="targetPoint"/></mxGeometry></mxCell><mxCell id="32" value="" style="edgeStyle=orthogonalEdgeStyle;fontSize=12;html=1;endArrow=ERzeroToMany;startArrow=ERmandOne;rounded=0;entryX=0.25;entryY=0;entryDx=0;entryDy=0;exitX=0.5;exitY=1;exitDx=0;exitDy=0;" parent="1" source="22" target="J9wHwNwn0n1z0YtR8CXD-2" edge="1"><mxGeometry width="100" height="100" relative="1" as="geometry"><mxPoint x="-60" y="-95" as="sourcePoint"/><mxPoint x="60" y="-95" as="targetPoint"/></mxGeometry></mxCell><mxCell id="33" value="" style="edgeStyle=orthogonalEdgeStyle;fontSize=12;html=1;endArrow=ERzeroToMany;startArrow=ERmandOne;rounded=0;entryX=0.5;entryY=0;entryDx=0;entryDy=0;exitX=0.5;exitY=1;exitDx=0;exitDy=0;" parent="1" source="J9wHwNwn0n1z0YtR8CXD-15" target="19" edge="1"><mxGeometry width="100" height="100" relative="1" as="geometry"><mxPoint x="-100" y="-85" as="sourcePoint"/><mxPoint x="20" y="-85" as="targetPoint"/></mxGeometry></mxCell><mxCell id="34" value="Service Type" style="html=1;dashed=0;whiteSpace=wrap;" parent="1" vertex="1"><mxGeometry x="-560" y="260" width="100" height="50" as="geometry"/></mxCell><mxCell id="35" value="" style="edgeStyle=orthogonalEdgeStyle;fontSize=12;html=1;endArrow=ERoneToMany;startArrow=ERmandOne;rounded=0;entryX=0.5;entryY=1;entryDx=0;entryDy=0;exitX=0.5;exitY=0;exitDx=0;exitDy=0;" parent="1" source="34" target="19" edge="1"><mxGeometry width="100" height="100" relative="1" as="geometry"><mxPoint x="-205" y="70" as="sourcePoint"/><mxPoint x="-290" y="10" as="targetPoint"/></mxGeometry></mxCell><mxCell id="37" value="" style="edgeStyle=orthogonalEdgeStyle;fontSize=12;html=1;endArrow=ERzeroToOne;startArrow=ERmandOne;rounded=0;exitX=0.5;exitY=1;exitDx=0;exitDy=0;entryX=0.5;entryY=0;entryDx=0;entryDy=0;" parent="1" source="J9wHwNwn0n1z0YtR8CXD-3" target="9" edge="1"><mxGeometry width="100" height="100" relative="1" as="geometry"><mxPoint x="-460" y="210" as="sourcePoint"/><mxPoint x="-590" y="140" as="targetPoint"/><Array as="points"/></mxGeometry></mxCell><mxCell id="38" value="" style="edgeStyle=orthogonalEdgeStyle;fontSize=12;html=1;endArrow=ERoneToMany;startArrow=ERmandOne;rounded=0;entryX=0.5;entryY=1;entryDx=0;entryDy=0;exitX=0.5;exitY=0;exitDx=0;exitDy=0;" parent="1" source="13" target="9" edge="1"><mxGeometry width="100" height="100" relative="1" as="geometry"><mxPoint x="-450" y="95" as="sourcePoint"/><mxPoint x="-390" y="95" as="targetPoint"/></mxGeometry></mxCell><mxCell id="39" value="Transaction" style="html=1;dashed=0;whiteSpace=wrap;" parent="1" vertex="1"><mxGeometry x="-560" y="-210" width="100" height="50" as="geometry"/></mxCell><mxCell id="52" value="" style="edgeStyle=orthogonalEdgeStyle;fontSize=12;html=1;endArrow=ERmandOne;startArrow=ERmandOne;rounded=0;entryX=1;entryY=0.5;entryDx=0;entryDy=0;exitX=1;exitY=0.5;exitDx=0;exitDy=0;" parent="1" source="J9wHwNwn0n1z0YtR8CXD-22" target="39" edge="1"><mxGeometry width="100" height="100" relative="1" as="geometry"><mxPoint x="-290" y="80" as="sourcePoint"/><mxPoint x="-190" y="-20" as="targetPoint"/><Array as="points"><mxPoint x="-420" y="-15"/><mxPoint x="-420" y="-185"/></Array></mxGeometry></mxCell><mxCell id="53" value="" style="edgeStyle=orthogonalEdgeStyle;fontSize=12;html=1;endArrow=ERmandOne;startArrow=ERmandOne;rounded=0;entryX=1;entryY=0.75;entryDx=0;entryDy=0;exitX=1;exitY=0.5;exitDx=0;exitDy=0;" parent="1" source="J9wHwNwn0n1z0YtR8CXD-25" target="39" edge="1"><mxGeometry width="100" height="100" relative="1" as="geometry"><mxPoint x="-450.0000000000002" y="-5" as="sourcePoint"/><mxPoint x="-450.0000000000002" y="-175" as="targetPoint"/><Array as="points"><mxPoint x="-430" y="-105"/><mxPoint x="-430" y="-172"/></Array></mxGeometry></mxCell><mxCell id="54" value="" style="edgeStyle=orthogonalEdgeStyle;fontSize=12;html=1;endArrow=ERmandOne;startArrow=ERmandOne;rounded=0;entryX=1;entryY=0.25;entryDx=0;entryDy=0;exitX=0;exitY=0.5;exitDx=0;exitDy=0;" parent="1" source="J9wHwNwn0n1z0YtR8CXD-5" target="39" edge="1"><mxGeometry width="100" height="100" relative="1" as="geometry"><mxPoint x="-440" y="5" as="sourcePoint"/><mxPoint x="-440.0000000000002" y="-165" as="targetPoint"/><Array as="points"><mxPoint x="-420" y="-315"/><mxPoint x="-420" y="-197"/></Array></mxGeometry></mxCell><mxCell id="55" value="Ren Jun" style="swimlane;startSize=0;" parent="1" vertex="1"><mxGeometry x="50" y="-50" width="230" height="270" as="geometry"/></mxCell><mxCell id="57" value="Hong Jun" style="swimlane;startSize=0;" parent="1" vertex="1"><mxGeometry x="-730" y="50" width="280" height="270" as="geometry"/></mxCell><mxCell id="58" value="Nick" style="swimlane;startSize=0;" parent="1" vertex="1"><mxGeometry x="-570" y="-220" width="170" height="240" as="geometry"/></mxCell><mxCell id="59" value="Ng Yu Heng" style="swimlane;startSize=0;" parent="1" vertex="1"><mxGeometry x="-370" y="-330" width="400" height="160" as="geometry"/></mxCell><mxCell id="60" value="" style="edgeStyle=orthogonalEdgeStyle;fontSize=12;html=1;endArrow=ERzeroToMany;startArrow=ERmandOne;rounded=0;entryX=0.5;entryY=0;entryDx=0;entryDy=0;exitX=0.5;exitY=1;exitDx=0;exitDy=0;" parent="1" source="J9wHwNwn0n1z0YtR8CXD-2" target="J9wHwNwn0n1z0YtR8CXD-6" edge="1"><mxGeometry width="100" height="100" relative="1" as="geometry"><mxPoint x="120" y="20" as="sourcePoint"/><mxPoint x="135" y="70" as="targetPoint"/></mxGeometry></mxCell><mxCell id="11" value="Meal Plan" style="html=1;dashed=0;whiteSpace=wrap;" parent="1" vertex="1"><mxGeometry x="-360" y="-40" width="100" height="50" as="geometry"/></mxCell><mxCell id="61" value="Meal" style="html=1;dashed=0;whiteSpace=wrap;" parent="1" vertex="1"><mxGeometry x="-360" y="-140" width="100" height="50" as="geometry"/></mxCell><mxCell id="62" value="" style="edgeStyle=orthogonalEdgeStyle;fontSize=12;html=1;endArrow=ERoneToMany;startArrow=ERmandOne;rounded=0;entryX=0.5;entryY=0;entryDx=0;entryDy=0;exitX=0.5;exitY=1;exitDx=0;exitDy=0;" parent="1" source="61" target="11" edge="1"><mxGeometry width="100" height="100" relative="1" as="geometry"><mxPoint x="-185" y="70" as="sourcePoint"/><mxPoint x="-300" y="20" as="targetPoint"/></mxGeometry></mxCell><mxCell id="63" value="Mine" style="swimlane;startSize=0;" parent="1" vertex="1"><mxGeometry x="-370" y="-150" width="400" height="370" as="geometry"/></mxCell><mxCell id="66" value="" style="edgeStyle=orthogonalEdgeStyle;fontSize=12;html=1;endArrow=ERzeroToMany;startArrow=ERmandOne;rounded=0;entryX=0.5;entryY=0;entryDx=0;entryDy=0;exitX=0.75;exitY=1;exitDx=0;exitDy=0;" edge="1" parent="1" source="J9wHwNwn0n1z0YtR8CXD-4" target="16"><mxGeometry width="100" height="100" relative="1" as="geometry"><mxPoint x="-135" y="-220" as="sourcePoint"/><mxPoint x="-20" y="-260" as="targetPoint"/></mxGeometry></mxCell></root></mxGraphModel></diagram></mxfile>